<?xml version="1.0" encoding="utf-8"?>
<!-- Generator: Adobe Illustrator 27.2.0, SVG Export Plug-In . SVG Version: 6.00 Build 0)  -->
<svg version="1.1" id="Camada_1" xmlns="http://www.w3.org/2000/svg" xmlns:xlink="http://www.w3.org/1999/xlink" x="0px" y="0px"
	 viewBox="0 0 155 117" style="enable-background:new 0 0 155 117;" xml:space="preserve">
<style type="text/css">
	.st0{fill:#502C1E;}
	.st1{fill:#9A7A69;}
</style>
<g>
	<g>
		<g>
			<g>
				<path class="st0" d="M9.53,92.23v-0.81h4.43c0,0.19,0.02,0.44,0,0.62c-0.2,3.05-3.25,4.2-6.24,4.2C3.78,96.25,1,94.49,1,91.27
					c0-3.34,2.98-4.77,6.59-4.77c1.79,0,3.83,0.34,5.43,1.21v0.89c-1.25-0.78-3.29-1.25-5.36-1.25c-2.92,0-5.6,0.98-5.6,3.91
					c0,2.75,2.41,4.1,5.63,4.1c2.53,0,5.09-0.78,5.23-3.14H9.53z"/>
				<path class="st0" d="M26.5,96.08l-2.75-3.74h-4.76v3.74h-1.01v-9.41h6.05c1.89,0,3.49,0.88,3.49,2.83c0,1.69-1.18,2.5-2.66,2.73
					l2.8,3.84H26.5z M18.99,87.49v4.01h4.89c1.52,0,2.58-0.51,2.58-2.01c0-1.48-1.06-2.01-2.58-2.01H18.99z"/>
				<path class="st0" d="M41.08,86.67h1.03v4.67c0,3.66-2.53,5.04-5.24,5.04s-5.24-1.38-5.24-5.04v-4.67h1.01v4.67
					c0,3.15,2.12,4.17,4.23,4.17c2.11,0,4.22-1.01,4.22-4.17V86.67z"/>
				<path class="st0" d="M47.94,92.15v3.93h-1.01v-9.41h6.09c1.96,0,3.37,0.96,3.37,2.73c0,1.75-1.42,2.75-3.37,2.75H47.94z
					 M47.94,87.51v3.79h4.92c1.47,0,2.43-0.61,2.43-1.91c0-1.32-0.96-1.89-2.43-1.89H47.94z"/>
				<path class="st0" d="M66.1,96.25c-3.81,0-6.69-1.79-6.69-4.87c0-3.05,2.88-4.87,6.69-4.87c3.79,0,6.71,1.79,6.71,4.87
					S69.93,96.25,66.1,96.25z M66.1,87.38c-3.15,0-5.63,1.33-5.63,4s2.5,4.01,5.63,4.01c3.15,0,5.65-1.35,5.65-4.01
					S69.24,87.38,66.1,87.38z"/>
				<path class="st0" d="M76.84,96.08v-9.41h6.24c2.11,0,3.49,0.52,3.49,2.65c0,0.83-0.51,1.43-1.06,1.65
					c1.05,0.13,1.91,1.06,1.91,2.29c0,2.01-1.13,2.82-3.9,2.82H76.84z M78.76,88.29v2.14h4.32c0.86,0,1.47-0.29,1.47-1.08
					c0-0.83-0.62-1.06-1.47-1.06H78.76z M78.76,92.06v2.39h4.76c1.15,0,1.85-0.27,1.85-1.2c0-0.93-0.64-1.2-1.85-1.2H78.76z"/>
				<path class="st0" d="M91.44,96.08v-9.41h1.92v9.41H91.44z"/>
				<path class="st0" d="M106.99,88.52c-1.32-0.39-2.73-0.47-4.23-0.47c-1.21,0-3.29,0.05-3.29,1.11c0,2.38,8.31-0.34,8.31,4.13
					c0,2.51-2.87,2.95-5.33,2.95c-1.79,0-3.63-0.19-5.03-0.49l0.07-1.64c1.45,0.37,3.27,0.57,4.99,0.57c1.67,0,3.47-0.22,3.47-1.32
					c0-2.53-8.31,0.24-8.31-4.1c0-2.5,2.97-2.78,5.08-2.78c1.84,0,3.24,0.19,4.33,0.49L106.99,88.52z"/>
				<path class="st0" d="M120.16,86.67h1.92v4.84c0,3.37-2.38,4.79-5.29,4.79c-2.92,0-5.26-1.42-5.26-4.79v-4.84h1.91v4.84
					c0,2.39,1.67,3.15,3.36,3.15c1.7,0,3.37-0.76,3.37-3.15V86.67z"/>
				<path class="st0" d="M129.67,96.08v-7.79h-4.22v-1.62h10.35v1.62h-4.23v7.79H129.67z"/>
				<path class="st0" d="M142.38,96.08v-7.79h-4.22v-1.62h10.35v1.62h-4.23v7.79H142.38z"/>
				<path class="st0" d="M152.08,96.08v-9.41H154v9.41H152.08z"/>
			</g>
		</g>
	</g>
	<path class="st1" d="M99.5,43.99c-4.34-2.8-8.1-2.93-12.23-3.16c0.65-0.03,1.42-0.09,2.02-0.22c4.07-0.88,6.09-2.03,7.82-4.2
		c1.45-1.86,4.68-9.15-9.23-12.83c-7.48-1.98-15.15-1.87-20.74-0.12c-5.68,1.78-11.51,4.52-13.47,10.49
		c-0.85,2.68-0.14,5.63,2.05,7.45c3.39,2.88,9.66,2.95,14.46,0.86c-1.21,0.72-2.5,1.32-3.76,1.91c-2.23,1-4.5,1.93-6.77,2.89
		c-3.77,1.51-7.51,3.81-7.61,8.35c0.1,4.36,3.49,6.94,7.51,8.56c0.79,6.48,8.56,9.19,17.43,8.28c12.55-1.29,21.3-8.13,24.59-15.6
		C102.39,54.78,105.16,47.63,99.5,43.99z M94.4,34.37c-0.23,0.99-0.8,1.82-1.59,2.56c-0.83,0.78-1.9,1.38-2.98,1.8
		c-1.89,0.78-3.88,1.31-5.91,1.65c-1.18,0.2-2.37,0.36-3.57,0.46c-0.42,0-0.85,0.01-1.27,0.05c-0.19,0.01-0.41,0.09-0.5,0.3
		c-0.15,0.3,0.08,0.66,0.4,0.69c0.11,0.02,0.27,0.02,0.37,0.02c0.9,0.04,2.22-0.21,3.35-0.18c3.83,0.12,11.59,0.55,14.62,4.38
		c1.83,2.32,4.22,9.29-5.06,14.78c-4.8,2.84-10.83,4.71-18.69,4.48c-4.34-0.13-10.21-1.53-12.74-2.68
		c-0.14-1.24,0.52-3.62,1.83-5.49c0.88-1.35,2.59-3.03,3.72-4.2c5.56-5.54,10.27-12.13,11.32-20.08c0.22-1.69-2.45-2.19-2.92-0.41
		c-0.73,2.79-0.85,4.82-1.86,6.11c-1.21,1.53-2.91,2.01-4.32,2.04c-1.61,0.02-3.48-0.19-4.7-2.24c-0.82-1.38-1.04-4.98,1.92-7.77
		c5.57-5.24,14.02-4.64,17.3-4.21s6.09,1.48,7.78,2.39c1.93,1.05,2.87,2.2,3.37,3.48C94.53,32.97,94.52,33.66,94.4,34.37z
		 M60.68,42.71c-4.33-0.72-7.45-3.93-6.01-8.45c1.9-5.41,7.88-8.34,13.12-9.87c6.6-1.92,16.07-1.15,20.69,1.34
		c-2.41-0.62-5.81-1.1-8.6-1.07c-6.59,0.05-11.21,1.83-15.02,4.81c-1.12,0.87-3.63,3.16-4.01,6.77c-0.42,5.39,4.73,6.45,8.93,5.33
		C66.87,42.82,63.42,43.19,60.68,42.71z M55.12,55.86c-0.08-3.69,3.97-6.32,6.46-7.63c0,0,5.38-2.67,5.38-2.67
		c1.76-0.92,3.85-1.94,5.2-3.4c-0.12,0.23-0.24,0.46-0.37,0.69c-0.89,1.63-1.9,3.19-3,4.69c-1.6,2.19-3.62,4.49-5.43,6.55
		c-1.31,1.48-2.48,3.11-3.22,4.98c-0.46,1.14-0.63,2.28-0.67,3.12C56.02,60.58,55.17,57.93,55.12,55.86z M76.89,71.21
		c-8.75,1.11-15.25-2.23-15.85-6.68c6.05,2.13,10.97,2.28,13.34,2.33c7.36,0.14,15.08-1.73,21.17-6.05c0.74-0.5,1.55-1.18,1.88-1.5
		C95.1,63.63,87.98,69.8,76.89,71.21z"/>
</g>
</svg>
